<svg xmlns="http://www.w3.org/2000/svg" xmlns:xlink="http://www.w3.org/1999/xlink" width="500" zoomAndPan="magnify" viewBox="0 0 375 149.999998" height="200" preserveAspectRatio="xMidYMid meet" version="1.0"><defs><g/></defs><g fill="#272525" fill-opacity="1"><g transform="translate(20.61225, 96.310658)"><g><path d="M 17.910156 4.558594 C 12.34375 5.449219 8.183594 6.0625 5.578125 6.324219 C 4.964844 6.371094 4.53125 6.59375 4.210938 6.851562 C 3.886719 7.113281 3.605469 7.625 3.398438 8.28125 C 2.816406 10.140625 2.976562 11.152344 4.070312 11.496094 C 4.582031 11.777344 5.457031 12.050781 6.550781 12.398438 L 8.953125 13.152344 L 11.796875 14.050781 C 13.21875 14.496094 14.78125 14.871094 16.492188 15.167969 C 18.199219 15.464844 20.011719 15.433594 21.925781 15.078125 C 23.191406 14.875 24.203125 14.710938 25.21875 14.550781 C 26.195312 14.5 26.953125 14.375 27.570312 14.332031 C 32.054688 13.820312 36.171875 12.953125 40.03125 11.765625 C 43.78125 10.542969 47.558594 8.851562 51.214844 6.398438 C 62.292969 -0.929688 70.160156 -11.789062 74.671875 -26.109375 C 77.011719 -33.542969 78.121094 -40.882812 78.1875 -47.953125 C 78.25 -55.023438 76.949219 -61.199219 74.433594 -66.558594 C 71.914062 -71.917969 68.191406 -75.734375 63.292969 -78.117188 C 60.773438 -79.269531 57.78125 -80.453125 54.0625 -81.625 L 44.628906 -84.476562 C 43.753906 -84.75 42.8125 -84.808594 41.796875 -84.644531 C 40.675781 -84.519531 40.027344 -84.363281 39.917969 -84.398438 C 39.519531 -84.28125 39.234375 -84.132812 38.878906 -83.761719 C 38.519531 -83.394531 38.347656 -82.847656 38.210938 -82.410156 C 38.003906 -81.753906 37.976562 -81.285156 38.125 -80.996094 C 38.277344 -80.707031 38.425781 -80.421875 38.828125 -80.175781 C 39.230469 -79.925781 39.414062 -79.75 39.632812 -79.679688 C 39.140625 -78.875 38.933594 -78.21875 38.828125 -77.890625 L 36.761719 -73.613281 C 36.164062 -72.480469 35.5 -71.128906 34.796875 -69.667969 C 34.0625 -68.097656 33.257812 -66.308594 32.386719 -64.300781 C 30.042969 -59.148438 27.71875 -52.910156 25.445312 -45.695312 C 23.621094 -39.902344 21.671875 -32.949219 19.703125 -24.796875 C 18.546875 -20.355469 17.28125 -13.664062 16.160156 -4.765625 C 15.5625 -1.347656 16.160156 1.726562 17.910156 4.558594 Z M 51.195312 -66.785156 C 52.265625 -69.8125 53.066406 -71.964844 53.511719 -73.386719 C 55.164062 -72.144531 56.617188 -69.886719 57.976562 -66.574219 C 59.226562 -63.296875 59.984375 -59.210938 60.246094 -54.324219 C 60.507812 -49.433594 60.128906 -44.027344 59.027344 -38.246094 C 58.484375 -36.132812 58.109375 -34.570312 57.835938 -33.695312 C 56.320312 -28.882812 54.183594 -24.390625 51.355469 -19.992188 C 48.53125 -15.597656 45.472656 -11.992188 42.367188 -9.007812 C 39.121094 -5.941406 36.328125 -3.9375 33.988281 -2.996094 C 35.804688 -15.640625 39.296875 -30.160156 44.460938 -46.558594 C 45.875 -51.039062 47.113281 -54.976562 48.289062 -58.328125 C 49.355469 -61.71875 50.363281 -64.527344 51.195312 -66.785156 Z M 51.195312 -66.785156 "/></g></g></g><g fill="#272525" fill-opacity="1"><g transform="translate(92.168044, 118.070356)"><g><path d="M 19.882812 -1.390625 L 18.941406 -1.320312 L 10.667969 -1.210938 C 10.554688 -1.230469 10.308594 -1.15625 10.082031 -1.195312 C 9.839844 -1.121094 9.59375 -1.046875 9.328125 -0.859375 C 9.066406 -0.671875 8.914062 -0.464844 8.855469 -0.125 L 8.890625 0.347656 C 8.835938 0.6875 9.023438 0.949219 9.324219 1.234375 C 9.625 1.515625 9.945312 1.6875 10.394531 1.765625 C 11.414062 1.9375 12.203125 2.070312 12.675781 2.035156 C 16.0625 2.609375 19.246094 3.035156 22.015625 3.15625 C 26.5 3.453125 33.320312 3.679688 42.476562 3.839844 C 46.640625 3.964844 49.789062 3.917969 51.898438 3.808594 C 52.125 3.847656 52.5 3.679688 52.804688 3.265625 C 53.105469 2.851562 53.390625 2.550781 53.578125 2.121094 C 53.734375 1.214844 53.378906 0.574219 52.246094 0.382812 L 40.757812 -1.101562 C 40.191406 -1.199219 39.15625 -1.257812 37.667969 -1.394531 L 37.878906 -2.636719 L 40.308594 -14.898438 C 40.769531 -17.609375 41.476562 -21.09375 42.394531 -25.121094 C 43.195312 -29.171875 44.132812 -34.011719 45.167969 -39.414062 C 46.988281 -49.453125 48.386719 -57.003906 49.25 -62.085938 L 51.28125 -73.367188 C 51.394531 -74.046875 51.699219 -74.460938 52.261719 -74.363281 L 52.601562 -74.304688 L 62.882812 -72.5625 C 63.675781 -72.425781 64.484375 -72.40625 65.203125 -72.515625 C 65.316406 -72.496094 65.445312 -72.589844 65.710938 -72.777344 C 65.84375 -72.871094 65.976562 -72.964844 66.015625 -73.191406 C 66.050781 -73.417969 65.957031 -73.550781 65.882812 -73.796875 C 65.808594 -74.039062 65.714844 -74.171875 65.621094 -74.304688 C 65.394531 -74.34375 65.074219 -74.515625 64.867188 -74.664062 C 64.53125 -74.722656 64.324219 -74.875 64.210938 -74.894531 C 63.078125 -75.085938 61.722656 -75.316406 59.953125 -75.847656 C 57.035156 -76.460938 54.910156 -76.9375 53.550781 -77.167969 C 48.804688 -77.972656 41.648438 -78.953125 32.121094 -80.339844 C 29.632812 -80.761719 26.113281 -81.242188 21.460938 -81.917969 C 21.234375 -81.957031 20.855469 -81.785156 20.460938 -81.503906 C 20.042969 -81.109375 19.78125 -80.921875 19.535156 -80.847656 C 19.722656 -80.585938 19.910156 -80.320312 20.210938 -80.035156 C 20.511719 -79.753906 20.832031 -79.582031 21.058594 -79.542969 C 22.054688 -79.257812 22.957031 -79.105469 23.75 -78.96875 C 24.539062 -78.835938 25.238281 -78.835938 25.804688 -78.738281 L 28.175781 -78.335938 L 34.84375 -77.203125 C 30.355469 -63.785156 26.808594 -49.039062 24.121094 -33.222656 C 22.550781 -23.957031 21.085938 -13.277344 19.882812 -1.390625 Z M 19.882812 -1.390625 "/></g></g></g><g fill="#272525" fill-opacity="1"><g transform="translate(155.94923, 128.889069)"><g><path d="M 30.652344 -93.21875 L 30.796875 -94.246094 C 30.808594 -94.589844 30.9375 -95.046875 30.953125 -95.617188 C 30.96875 -96.078125 30.75 -96.425781 30.527344 -96.664062 C 30.300781 -96.785156 29.847656 -96.914062 29.160156 -96.933594 L 26.753906 -97.003906 C 24.691406 -97.066406 23.3125 -96.992188 22.617188 -96.785156 C 21.925781 -96.578125 21.335938 -96.136719 20.855469 -95.347656 C 20.375 -94.558594 19.984375 -93.078125 19.464844 -91.03125 C 17.636719 -83.519531 16.027344 -75.769531 14.644531 -67.898438 C 10.28125 -44.640625 7.390625 -24.773438 6.101562 -8.53125 C 5.914062 -6.015625 5.796875 -2.121094 5.644531 2.921875 C 5.601562 4.410156 6.039062 5.109375 7.183594 5.144531 L 10.507812 5.246094 C 11.195312 5.265625 12.109375 5.292969 13.257812 5.328125 C 14.402344 5.363281 15.660156 5.398438 17.265625 5.445312 C 18.640625 5.488281 19.464844 4.710938 19.75 2.882812 L 21.320312 -11.285156 C 21.339844 -11.859375 21.464844 -12.3125 21.703125 -12.535156 C 21.824219 -12.761719 22.175781 -12.980469 22.632812 -12.96875 L 22.863281 -12.960938 C 27.660156 -12.359375 35.550781 -11.664062 46.300781 -10.769531 C 46.53125 -10.761719 46.640625 -10.644531 46.867188 -10.523438 C 47.09375 -10.402344 47.203125 -10.28125 47.316406 -10.164062 L 47.585938 -7.75 C 47.75 -5.566406 47.816406 -3.957031 47.785156 -2.8125 C 47.476562 -0.183594 48.238281 1.101562 50.300781 1.160156 L 59.808594 1.445312 C 61.527344 1.496094 62.675781 1.417969 63.261719 1.089844 C 63.839844 0.878906 64.199219 0.316406 64.34375 -0.597656 C 64.371094 -1.511719 64.546875 -3.570312 64.640625 -6.78125 C 64.878906 -14.683594 64.023438 -24.457031 62.199219 -36.207031 C 60.644531 -45.65625 59.382812 -53.261719 58.179688 -59.027344 C 56.972656 -64.683594 55.421875 -70.347656 53.410156 -75.914062 C 51.292969 -81.707031 49.128906 -86.128906 46.8125 -89.179688 C 44.824219 -91.648438 42.457031 -92.980469 39.933594 -93.054688 Z M 30.652344 -93.21875 "/></g></g></g><g fill="#272525" fill-opacity="1"><g transform="translate(232.057342, 130.452983)"><g><path d="M 0.964844 -52.234375 C 1.816406 -45.640625 3.203125 -36.339844 5.035156 -24.089844 C 6.253906 -15.230469 7.855469 -8.144531 9.71875 -2.816406 C 10.074219 -1.703125 10.707031 -1.195312 11.617188 -1.300781 C 12.757812 -1.425781 14.453125 -1.730469 16.730469 -1.984375 C 18.894531 -2.226562 20.617188 -2.304688 21.753906 -2.433594 C 22.78125 -2.546875 23.285156 -3.179688 23.273438 -4.332031 L 23.179688 -8.242188 C 23.09375 -9.039062 23.089844 -10.078125 23.078125 -11.230469 C 22.949219 -12.367188 22.898438 -13.863281 22.71875 -15.457031 C 21.867188 -23.089844 20.886719 -30.820312 19.792969 -38.539062 C 19.730469 -39.109375 19.679688 -39.566406 19.882812 -39.820312 C 20.082031 -40.070312 20.398438 -40.335938 20.96875 -40.402344 L 24.042969 -40.746094 C 25.410156 -40.898438 26.449219 -40.898438 27.132812 -40.976562 C 27.246094 -40.988281 27.488281 -40.898438 27.742188 -40.699219 C 27.992188 -40.496094 28.121094 -40.394531 28.375 -40.191406 L 30.984375 -34.371094 C 35.359375 -25.171875 40.070312 -17.050781 45.101562 -10.230469 C 46.191406 -8.738281 47.417969 -8.070312 49.027344 -8.132812 C 50.0625 -8.136719 51.660156 -8.3125 53.707031 -8.542969 C 53.824219 -8.554688 53.9375 -8.566406 54.152344 -8.707031 C 54.378906 -8.734375 54.480469 -8.859375 54.46875 -8.972656 L 54.199219 -11.363281 C 54.058594 -12.617188 53.820312 -13.746094 53.589844 -14.757812 C 53.3125 -15.1875 52.90625 -15.71875 52.375 -16.351562 C 51.726562 -16.96875 51.335938 -17.386719 51.171875 -17.832031 L 37.367188 -45.347656 C 37.078125 -45.894531 37.039062 -46.234375 37.027344 -46.347656 C 36.976562 -46.804688 37.265625 -47.296875 37.910156 -47.714844 C 43.023438 -51.515625 46.207031 -56.023438 47.445312 -61.46875 C 48.367188 -65.605469 48.601562 -69.671875 48.171875 -73.542969 C 47.558594 -79.007812 45.570312 -84.4375 42.199219 -89.828125 C 37.710938 -96.9375 32.128906 -100.464844 25.535156 -100.648438 C 23.800781 -100.6875 21.28125 -100.519531 17.863281 -100.136719 C 16.15625 -99.945312 14.449219 -99.757812 12.613281 -99.667969 C 10.789062 -99.460938 9.171875 -99.511719 7.640625 -99.800781 C 6.472656 -99.902344 5.4375 -99.902344 4.296875 -99.773438 C 3.042969 -99.632812 2.03125 -99.40625 1.121094 -99.304688 C 0.222656 -99.089844 -0.449219 -98.898438 -0.902344 -98.847656 C -2.828125 -98.515625 -4.054688 -98.148438 -4.460938 -97.640625 C -4.863281 -97.136719 -4.953125 -95.855469 -4.734375 -93.921875 C -4.226562 -89.363281 -3.78125 -85.378906 -3.285156 -81.972656 C -2.902344 -78.558594 -2.457031 -75.609375 -2.089844 -73.34375 L -1.082031 -66.421875 Z M 0.964844 -52.234375 "/></g></g></g><g fill="#272525" fill-opacity="1"><g transform="translate(298.890463, 122.623744)"><g><path d="M 29.847656 -48.058594 L 30.070312 -47.167969 C 32.785156 -36.269531 34.71875 -28.011719 36.050781 -22.671875 C 36.988281 -18.417969 36.207031 -14.445312 33.757812 -10.527344 C 33.0625 -9.527344 32.585938 -9.054688 32.253906 -8.972656 C 32.03125 -8.917969 31.671875 -8.945312 31.253906 -9.195312 C 30.835938 -9.445312 30.390625 -9.808594 29.921875 -10.28125 C 27.253906 -12.453125 24.535156 -15.789062 21.703125 -20.519531 C 19.925781 -23.382812 18.457031 -25.96875 17.402344 -28.304688 C 17.015625 -28.917969 16.792969 -29.335938 16.515625 -29.503906 C 16.238281 -29.667969 15.847656 -29.808594 15.402344 -29.699219 L 8.0625 -27.871094 C 7.199219 -27.539062 6.699219 -27.179688 6.449219 -26.761719 C 6.226562 -26.234375 6.28125 -25.539062 6.503906 -24.648438 C 6.472656 -23.816406 6.75 -23.175781 7.085938 -22.785156 L 8.972656 -19.476562 C 12.355469 -13.46875 14.964844 -9.15625 16.824219 -6.429688 C 18.074219 -4.261719 19.738281 -2.785156 21.601562 -1.949219 C 23.460938 -1.113281 25.492188 -1.027344 27.714844 -1.582031 C 32.777344 -2.605469 36.558594 -3.546875 38.976562 -4.265625 C 41.644531 -4.929688 44.007812 -6.347656 46.070312 -8.511719 C 48.15625 -10.566406 49.519531 -13.152344 50.386719 -16.320312 C 51.140625 -19.460938 51.113281 -22.878906 50.285156 -26.6875 C 45.75 -47.289062 42.261719 -62.71875 39.9375 -73.007812 C 39.328125 -75.453125 38.5 -78.320312 37.613281 -81.40625 C 36.613281 -84.464844 35.976562 -86.550781 35.671875 -87.773438 L 34.511719 -91.5 C 34.121094 -92.582031 33.707031 -93.304688 33.261719 -93.667969 C 32.707031 -94.003906 31.984375 -94.058594 30.980469 -93.808594 L 24.308594 -92.148438 L 20.972656 -91.320312 C 20.082031 -91.097656 19.664062 -90.402344 19.832031 -89.261719 C 19.941406 -88.816406 19.996094 -88.121094 20.191406 -87.34375 C 20.273438 -86.539062 20.328125 -85.84375 20.4375 -85.398438 L 20.515625 -79.394531 C 20.515625 -77.976562 20.566406 -76.335938 20.59375 -74.335938 C 20.617188 -72.332031 20.726562 -70 20.667969 -67.386719 C 20.550781 -59.796875 19.460938 -53.738281 17.5625 -49.015625 C 17.339844 -48.488281 17.0625 -48.183594 16.730469 -48.097656 C 16.507812 -48.042969 16.117188 -48.183594 15.730469 -48.792969 C 11.011719 -54.46875 7.652344 -60.367188 5.796875 -66.402344 C 4.855469 -69.238281 3.664062 -73.546875 2.226562 -79.332031 C 1.835938 -80.414062 1.394531 -82.195312 0.8125 -84.53125 C 0.589844 -85.417969 0.203125 -86.03125 -0.128906 -86.421875 C -0.464844 -86.808594 -0.964844 -86.921875 -1.632812 -86.757812 C -3.855469 -86.203125 -7.164062 -85.261719 -11.363281 -84.097656 C -11.585938 -84.042969 -11.753906 -83.765625 -11.917969 -83.488281 C -12.085938 -83.210938 -12.253906 -82.929688 -12.308594 -82.679688 C -12.421875 -81.707031 -12.421875 -80.761719 -12.285156 -79.734375 C -11.761719 -74.3125 -11.265625 -70.421875 -10.933594 -68.140625 C -10.796875 -67.113281 -10.4375 -65.667969 -9.996094 -63.886719 C -7.890625 -55.4375 -4.230469 -48.316406 1.074219 -42.667969 C 4.351562 -38.996094 7.796875 -37.488281 11.355469 -38.375 L 17.164062 -39.703125 L 22.921875 -41.253906 C 24.03125 -41.53125 25.0625 -42.140625 26.121094 -43.113281 C 26.675781 -43.722656 27.371094 -44.722656 28.429688 -46.167969 C 29.515625 -47.5 29.960938 -48.085938 29.847656 -48.058594 Z M 29.847656 -48.058594 "/></g></g></g><g fill="#272525" fill-opacity="1"><g transform="translate(362.943482, 105.685892)"><g/></g></g></svg>